{
	"patcher" : 	{
		"fileversion" : 1,
		"appversion" : 		{
			"major" : 8,
			"minor" : 5,
			"revision" : 4,
			"architecture" : "x64",
			"modernui" : 1
		}
,
		"classnamespace" : "box",
		"rect" : [ 76.0, 122.0, 1048.0, 480.0 ],
		"bglocked" : 0,
		"openinpresentation" : 0,
		"default_fontsize" : 12.0,
		"default_fontface" : 0,
		"default_fontname" : "Arial",
		"gridonopen" : 1,
		"gridsize" : [ 15.0, 15.0 ],
		"gridsnaponopen" : 1,
		"objectsnaponopen" : 1,
		"statusbarvisible" : 2,
		"toolbarvisible" : 1,
		"lefttoolbarpinned" : 0,
		"toptoolbarpinned" : 0,
		"righttoolbarpinned" : 0,
		"bottomtoolbarpinned" : 0,
		"toolbars_unpinned_last_save" : 0,
		"tallnewobj" : 0,
		"boxanimatetime" : 200,
		"enablehscroll" : 1,
		"enablevscroll" : 1,
		"devicewidth" : 0.0,
		"description" : "",
		"digest" : "",
		"tags" : "",
		"style" : "",
		"subpatcher_template" : "",
		"assistshowspatchername" : 0,
		"boxes" : [ 			{
				"box" : 				{
					"id" : "obj-21",
					"maxclass" : "newobj",
					"numinlets" : 1,
					"numoutlets" : 0,
					"patcher" : 					{
						"fileversion" : 1,
						"appversion" : 						{
							"major" : 8,
							"minor" : 5,
							"revision" : 4,
							"architecture" : "x64",
							"modernui" : 1
						}
,
						"classnamespace" : "box",
						"rect" : [ 59.0, 119.0, 640.0, 480.0 ],
						"bglocked" : 0,
						"openinpresentation" : 0,
						"default_fontsize" : 12.0,
						"default_fontface" : 0,
						"default_fontname" : "Arial",
						"gridonopen" : 1,
						"gridsize" : [ 15.0, 15.0 ],
						"gridsnaponopen" : 1,
						"objectsnaponopen" : 1,
						"statusbarvisible" : 2,
						"toolbarvisible" : 1,
						"lefttoolbarpinned" : 0,
						"toptoolbarpinned" : 0,
						"righttoolbarpinned" : 0,
						"bottomtoolbarpinned" : 0,
						"toolbars_unpinned_last_save" : 0,
						"tallnewobj" : 0,
						"boxanimatetime" : 200,
						"enablehscroll" : 1,
						"enablevscroll" : 1,
						"devicewidth" : 0.0,
						"description" : "",
						"digest" : "",
						"tags" : "",
						"style" : "",
						"subpatcher_template" : "",
						"assistshowspatchername" : 0,
						"boxes" : [ 							{
								"box" : 								{
									"id" : "obj-4",
									"maxclass" : "newobj",
									"numinlets" : 4,
									"numoutlets" : 4,
									"outlettype" : [ "", "", "", "" ],
									"patching_rect" : [ 50.0, 84.0, 242.0, 22.0 ],
									"text" : "route beat tempo song_dict_name"
								}

							}
, 							{
								"box" : 								{
									"id" : "obj-2",
									"maxclass" : "newobj",
									"numinlets" : 1,
									"numoutlets" : 1,
									"outlettype" : [ "" ],
									"patching_rect" : [ 288.0, 316.0, 208.0, 22.0 ],
									"text" : "pv #0_MIDI_SONG_DICT_NAME"
								}

							}
, 							{
								"box" : 								{
									"comment" : "",
									"id" : "obj-14",
									"index" : 1,
									"maxclass" : "inlet",
									"numinlets" : 0,
									"numoutlets" : 1,
									"outlettype" : [ "" ],
									"patching_rect" : [ 50.0, 100.0, 30.0, 30.0 ]
								}

							}
 ],
						"lines" : [  ]
					}
,
					"patching_rect" : [ 307.0, 189.228515625, 123.0, 22.0 ],
					"saved_object_attributes" : 					{
						"description" : "",
						"digest" : "",
						"globalpatchername" : "",
						"tags" : ""
					}
,
					"text" : "p djazz_midi",
					"varname" : "midi"
				}

			}
, 			{
				"box" : 				{
					"id" : "obj-12",
					"maxclass" : "newobj",
					"numinlets" : 1,
					"numoutlets" : 1,
					"outlettype" : [ "" ],
					"patcher" : 					{
						"fileversion" : 1,
						"appversion" : 						{
							"major" : 8,
							"minor" : 5,
							"revision" : 4,
							"architecture" : "x64",
							"modernui" : 1
						}
,
						"classnamespace" : "box",
						"rect" : [ 333.0, 236.0, 984.0, 736.0 ],
						"bglocked" : 0,
						"openinpresentation" : 0,
						"default_fontsize" : 12.0,
						"default_fontface" : 0,
						"default_fontname" : "Arial",
						"gridonopen" : 1,
						"gridsize" : [ 15.0, 15.0 ],
						"gridsnaponopen" : 1,
						"objectsnaponopen" : 1,
						"statusbarvisible" : 2,
						"toolbarvisible" : 1,
						"lefttoolbarpinned" : 0,
						"toptoolbarpinned" : 0,
						"righttoolbarpinned" : 0,
						"bottomtoolbarpinned" : 0,
						"toolbars_unpinned_last_save" : 0,
						"tallnewobj" : 0,
						"boxanimatetime" : 200,
						"enablehscroll" : 1,
						"enablevscroll" : 1,
						"devicewidth" : 0.0,
						"description" : "",
						"digest" : "",
						"tags" : "",
						"style" : "",
						"subpatcher_template" : "",
						"assistshowspatchername" : 0,
						"boxes" : [ 							{
								"box" : 								{
									"id" : "obj-13",
									"maxclass" : "newobj",
									"numinlets" : 4,
									"numoutlets" : 4,
									"outlettype" : [ "", "", "", "" ],
									"patching_rect" : [ 50.0, 84.0, 244.0, 22.0 ],
									"text" : "route beat tempo song_dict_name"
								}

							}
, 							{
								"box" : 								{
									"id" : "obj-8",
									"maxclass" : "newobj",
									"numinlets" : 1,
									"numoutlets" : 1,
									"outlettype" : [ "" ],
									"patcher" : 									{
										"fileversion" : 1,
										"appversion" : 										{
											"major" : 8,
											"minor" : 5,
											"revision" : 4,
											"architecture" : "x64",
											"modernui" : 1
										}
,
										"classnamespace" : "box",
										"rect" : [ 59.0, 119.0, 499.0, 515.0 ],
										"bglocked" : 0,
										"openinpresentation" : 0,
										"default_fontsize" : 12.0,
										"default_fontface" : 0,
										"default_fontname" : "Arial",
										"gridonopen" : 1,
										"gridsize" : [ 15.0, 15.0 ],
										"gridsnaponopen" : 1,
										"objectsnaponopen" : 1,
										"statusbarvisible" : 2,
										"toolbarvisible" : 1,
										"lefttoolbarpinned" : 0,
										"toptoolbarpinned" : 0,
										"righttoolbarpinned" : 0,
										"bottomtoolbarpinned" : 0,
										"toolbars_unpinned_last_save" : 0,
										"tallnewobj" : 0,
										"boxanimatetime" : 200,
										"enablehscroll" : 1,
										"enablevscroll" : 1,
										"devicewidth" : 0.0,
										"description" : "",
										"digest" : "",
										"tags" : "",
										"style" : "",
										"subpatcher_template" : "",
										"assistshowspatchername" : 0,
										"boxes" : [ 											{
												"box" : 												{
													"id" : "obj-13",
													"maxclass" : "newobj",
													"numinlets" : 2,
													"numoutlets" : 2,
													"outlettype" : [ "", "" ],
													"patching_rect" : [ 50.0, 100.0, 99.0, 22.0 ],
													"text" : "routepass NONE"
												}

											}
, 											{
												"box" : 												{
													"id" : "obj-12",
													"maxclass" : "newobj",
													"numinlets" : 2,
													"numoutlets" : 2,
													"outlettype" : [ "", "" ],
													"patching_rect" : [ 130.0, 289.0, 91.0, 22.0 ],
													"text" : "route dictionary"
												}

											}
, 											{
												"box" : 												{
													"id" : "obj-9",
													"maxclass" : "newobj",
													"numinlets" : 1,
													"numoutlets" : 1,
													"outlettype" : [ "" ],
													"patching_rect" : [ 130.0, 239.0, 126.0, 22.0 ],
													"text" : "dict.unpack grid_data:"
												}

											}
, 											{
												"box" : 												{
													"id" : "obj-8",
													"maxclass" : "message",
													"numinlets" : 2,
													"numoutlets" : 1,
													"outlettype" : [ "" ],
													"patching_rect" : [ 130.0, 189.0, 77.0, 22.0 ],
													"text" : "dictionary $1"
												}

											}
, 											{
												"box" : 												{
													"comment" : "",
													"id" : "obj-1",
													"index" : 1,
													"maxclass" : "inlet",
													"numinlets" : 0,
													"numoutlets" : 1,
													"outlettype" : [ "" ],
													"patching_rect" : [ 49.999996313163763, 39.9999981656131, 30.0, 30.0 ]
												}

											}
, 											{
												"box" : 												{
													"comment" : "",
													"id" : "obj-2",
													"index" : 1,
													"maxclass" : "outlet",
													"numinlets" : 1,
													"numoutlets" : 0,
													"patching_rect" : [ 84.000011313163782, 371.000010165613105, 30.0, 30.0 ]
												}

											}
 ],
										"lines" : [ 											{
												"patchline" : 												{
													"destination" : [ "obj-13", 0 ],
													"source" : [ "obj-1", 0 ]
												}

											}
, 											{
												"patchline" : 												{
													"destination" : [ "obj-2", 0 ],
													"source" : [ "obj-12", 0 ]
												}

											}
, 											{
												"patchline" : 												{
													"destination" : [ "obj-2", 0 ],
													"source" : [ "obj-13", 0 ]
												}

											}
, 											{
												"patchline" : 												{
													"destination" : [ "obj-8", 0 ],
													"source" : [ "obj-13", 1 ]
												}

											}
, 											{
												"patchline" : 												{
													"destination" : [ "obj-9", 0 ],
													"source" : [ "obj-8", 0 ]
												}

											}
, 											{
												"patchline" : 												{
													"destination" : [ "obj-12", 0 ],
													"source" : [ "obj-9", 0 ]
												}

											}
 ]
									}
,
									"patching_rect" : [ 442.0, 147.048264570275876, 154.0, 22.0 ],
									"saved_object_attributes" : 									{
										"description" : "",
										"digest" : "",
										"globalpatchername" : "",
										"tags" : ""
									}
,
									"text" : "p get_grid_data_dict_name"
								}

							}
, 							{
								"box" : 								{
									"id" : "obj-20",
									"maxclass" : "newobj",
									"numinlets" : 2,
									"numoutlets" : 1,
									"outlettype" : [ "" ],
									"patcher" : 									{
										"fileversion" : 1,
										"appversion" : 										{
											"major" : 8,
											"minor" : 5,
											"revision" : 4,
											"architecture" : "x64",
											"modernui" : 1
										}
,
										"classnamespace" : "box",
										"rect" : [ 67.0, 147.0, 640.0, 480.0 ],
										"bglocked" : 0,
										"openinpresentation" : 0,
										"default_fontsize" : 12.0,
										"default_fontface" : 0,
										"default_fontname" : "Arial",
										"gridonopen" : 1,
										"gridsize" : [ 15.0, 15.0 ],
										"gridsnaponopen" : 1,
										"objectsnaponopen" : 1,
										"statusbarvisible" : 2,
										"toolbarvisible" : 1,
										"lefttoolbarpinned" : 0,
										"toptoolbarpinned" : 0,
										"righttoolbarpinned" : 0,
										"bottomtoolbarpinned" : 0,
										"toolbars_unpinned_last_save" : 0,
										"tallnewobj" : 0,
										"boxanimatetime" : 200,
										"enablehscroll" : 1,
										"enablevscroll" : 1,
										"devicewidth" : 0.0,
										"description" : "",
										"digest" : "",
										"tags" : "",
										"style" : "",
										"subpatcher_template" : "",
										"assistshowspatchername" : 0,
										"boxes" : [ 											{
												"box" : 												{
													"comment" : "",
													"id" : "obj-3",
													"index" : 2,
													"maxclass" : "inlet",
													"numinlets" : 0,
													"numoutlets" : 1,
													"outlettype" : [ "" ],
													"patching_rect" : [ 244.0, 36.0, 30.0, 30.0 ]
												}

											}
, 											{
												"box" : 												{
													"comment" : "",
													"id" : "obj-2",
													"index" : 1,
													"maxclass" : "inlet",
													"numinlets" : 0,
													"numoutlets" : 1,
													"outlettype" : [ "" ],
													"patching_rect" : [ 57.0, 32.0, 30.0, 30.0 ]
												}

											}
, 											{
												"box" : 												{
													"id" : "obj-1",
													"maxclass" : "newobj",
													"numinlets" : 2,
													"numoutlets" : 2,
													"outlettype" : [ "", "" ],
													"patching_rect" : [ 57.0, 94.0, 143.0, 22.0 ],
													"text" : "route loop_section_beats"
												}

											}
, 											{
												"box" : 												{
													"id" : "obj-28",
													"maxclass" : "message",
													"numinlets" : 2,
													"numoutlets" : 1,
													"outlettype" : [ "" ],
													"patching_rect" : [ 57.0, 232.0, 95.0, 22.0 ],
													"text" : "factor_oracle $1"
												}

											}
, 											{
												"box" : 												{
													"id" : "obj-32",
													"maxclass" : "newobj",
													"numinlets" : 2,
													"numoutlets" : 1,
													"outlettype" : [ "NONE" ],
													"patcher" : 													{
														"fileversion" : 1,
														"appversion" : 														{
															"major" : 8,
															"minor" : 5,
															"revision" : 4,
															"architecture" : "x64",
															"modernui" : 1
														}
,
														"classnamespace" : "box",
														"rect" : [ 597.0, 100.0, 862.0, 928.0 ],
														"bglocked" : 0,
														"openinpresentation" : 0,
														"default_fontsize" : 12.0,
														"default_fontface" : 0,
														"default_fontname" : "Arial",
														"gridonopen" : 1,
														"gridsize" : [ 15.0, 15.0 ],
														"gridsnaponopen" : 1,
														"objectsnaponopen" : 1,
														"statusbarvisible" : 2,
														"toolbarvisible" : 1,
														"lefttoolbarpinned" : 0,
														"toptoolbarpinned" : 0,
														"righttoolbarpinned" : 0,
														"bottomtoolbarpinned" : 0,
														"toolbars_unpinned_last_save" : 0,
														"tallnewobj" : 0,
														"boxanimatetime" : 200,
														"enablehscroll" : 1,
														"enablevscroll" : 1,
														"devicewidth" : 0.0,
														"description" : "",
														"digest" : "",
														"tags" : "",
														"style" : "",
														"subpatcher_template" : "",
														"assistshowspatchername" : 0,
														"boxes" : [ 															{
																"box" : 																{
																	"id" : "obj-28",
																	"maxclass" : "newobj",
																	"numinlets" : 3,
																	"numoutlets" : 0,
																	"patcher" : 																	{
																		"fileversion" : 1,
																		"appversion" : 																		{
																			"major" : 8,
																			"minor" : 5,
																			"revision" : 4,
																			"architecture" : "x64",
																			"modernui" : 1
																		}
,
																		"classnamespace" : "box",
																		"rect" : [ 277.0, 311.0, 640.0, 480.0 ],
																		"bglocked" : 0,
																		"openinpresentation" : 0,
																		"default_fontsize" : 12.0,
																		"default_fontface" : 0,
																		"default_fontname" : "Arial",
																		"gridonopen" : 1,
																		"gridsize" : [ 15.0, 15.0 ],
																		"gridsnaponopen" : 1,
																		"objectsnaponopen" : 1,
																		"statusbarvisible" : 2,
																		"toolbarvisible" : 1,
																		"lefttoolbarpinned" : 0,
																		"toptoolbarpinned" : 0,
																		"righttoolbarpinned" : 0,
																		"bottomtoolbarpinned" : 0,
																		"toolbars_unpinned_last_save" : 0,
																		"tallnewobj" : 0,
																		"boxanimatetime" : 200,
																		"enablehscroll" : 1,
																		"enablevscroll" : 1,
																		"devicewidth" : 0.0,
																		"description" : "",
																		"digest" : "",
																		"tags" : "",
																		"style" : "",
																		"subpatcher_template" : "",
																		"assistshowspatchername" : 0,
																		"boxes" : [ 																			{
																				"box" : 																				{
																					"id" : "obj-4",
																					"maxclass" : "dict.view",
																					"numinlets" : 1,
																					"numoutlets" : 0,
																					"patching_rect" : [ 343.0, 293.0, 100.0, 100.0 ]
																				}

																			}
, 																			{
																				"box" : 																				{
																					"id" : "obj-3",
																					"maxclass" : "newobj",
																					"numinlets" : 2,
																					"numoutlets" : 2,
																					"outlettype" : [ "", "" ],
																					"patching_rect" : [ 363.0, 180.0, 55.0, 22.0 ],
																					"text" : "zl.slice 1"
																				}

																			}
, 																			{
																				"box" : 																				{
																					"id" : "obj-19",
																					"maxclass" : "newobj",
																					"numinlets" : 2,
																					"numoutlets" : 1,
																					"outlettype" : [ "" ],
																					"patcher" : 																					{
																						"fileversion" : 1,
																						"appversion" : 																						{
																							"major" : 8,
																							"minor" : 5,
																							"revision" : 4,
																							"architecture" : "x64",
																							"modernui" : 1
																						}
,
																						"classnamespace" : "box",
																						"rect" : [ 59.0, 119.0, 640.0, 480.0 ],
																						"bglocked" : 0,
																						"openinpresentation" : 0,
																						"default_fontsize" : 12.0,
																						"default_fontface" : 0,
																						"default_fontname" : "Arial",
																						"gridonopen" : 1,
																						"gridsize" : [ 15.0, 15.0 ],
																						"gridsnaponopen" : 1,
																						"objectsnaponopen" : 1,
																						"statusbarvisible" : 2,
																						"toolbarvisible" : 1,
																						"lefttoolbarpinned" : 0,
																						"toptoolbarpinned" : 0,
																						"righttoolbarpinned" : 0,
																						"bottomtoolbarpinned" : 0,
																						"toolbars_unpinned_last_save" : 0,
																						"tallnewobj" : 0,
																						"boxanimatetime" : 200,
																						"enablehscroll" : 1,
																						"enablevscroll" : 1,
																						"devicewidth" : 0.0,
																						"description" : "",
																						"digest" : "",
																						"tags" : "",
																						"style" : "",
																						"subpatcher_template" : "",
																						"assistshowspatchername" : 0,
																						"boxes" : [ 																							{
																								"box" : 																								{
																									"id" : "obj-1",
																									"maxclass" : "dict.view",
																									"numinlets" : 1,
																									"numoutlets" : 0,
																									"patching_rect" : [ 287.0, 306.0, 100.0, 100.0 ]
																								}

																							}
, 																							{
																								"box" : 																								{
																									"id" : "obj-21",
																									"maxclass" : "newobj",
																									"numinlets" : 2,
																									"numoutlets" : 1,
																									"outlettype" : [ "" ],
																									"patcher" : 																									{
																										"fileversion" : 1,
																										"appversion" : 																										{
																											"major" : 8,
																											"minor" : 5,
																											"revision" : 4,
																											"architecture" : "x64",
																											"modernui" : 1
																										}
,
																										"classnamespace" : "box",
																										"rect" : [ 460.0, 206.0, 640.0, 480.0 ],
																										"bglocked" : 0,
																										"openinpresentation" : 0,
																										"default_fontsize" : 12.0,
																										"default_fontface" : 0,
																										"default_fontname" : "Arial",
																										"gridonopen" : 1,
																										"gridsize" : [ 15.0, 15.0 ],
																										"gridsnaponopen" : 1,
																										"objectsnaponopen" : 1,
																										"statusbarvisible" : 2,
																										"toolbarvisible" : 1,
																										"lefttoolbarpinned" : 0,
																										"toptoolbarpinned" : 0,
																										"righttoolbarpinned" : 0,
																										"bottomtoolbarpinned" : 0,
																										"toolbars_unpinned_last_save" : 0,
																										"tallnewobj" : 0,
																										"boxanimatetime" : 200,
																										"enablehscroll" : 1,
																										"enablevscroll" : 1,
																										"devicewidth" : 0.0,
																										"description" : "",
																										"digest" : "",
																										"tags" : "",
																										"style" : "",
																										"subpatcher_template" : "",
																										"assistshowspatchername" : 0,
																										"boxes" : [ 																											{
																												"box" : 																												{
																													"id" : "obj-11",
																													"maxclass" : "newobj",
																													"numinlets" : 2,
																													"numoutlets" : 2,
																													"outlettype" : [ "", "" ],
																													"patching_rect" : [ 68.500000135505616, 387.712732369913056, 76.5, 22.0 ],
																													"text" : "route"
																												}

																											}
, 																											{
																												"box" : 																												{
																													"id" : "obj-10",
																													"maxclass" : "message",
																													"numinlets" : 2,
																													"numoutlets" : 1,
																													"outlettype" : [ "" ],
																													"patching_rect" : [ 237.000000135505616, 241.712732369913056, 55.0, 22.0 ],
																													"text" : "name $1"
																												}

																											}
, 																											{
																												"box" : 																												{
																													"id" : "obj-8",
																													"maxclass" : "newobj",
																													"numinlets" : 2,
																													"numoutlets" : 4,
																													"outlettype" : [ "dictionary", "", "", "" ],
																													"patching_rect" : [ 58.000000135505616, 346.712732369913056, 50.5, 22.0 ],
																													"saved_object_attributes" : 																													{
																														"embed" : 0,
																														"parameter_enable" : 0,
																														"parameter_mappable" : 0
																													}
,
																													"text" : "dict"
																												}

																											}
, 																											{
																												"box" : 																												{
																													"id" : "obj-6",
																													"maxclass" : "newobj",
																													"numinlets" : 1,
																													"numoutlets" : 2,
																													"outlettype" : [ "", "" ],
																													"patching_rect" : [ 58.000000135505616, 233.712732369913056, 87.0, 22.0 ],
																													"text" : "t s s"
																												}

																											}
, 																											{
																												"box" : 																												{
																													"id" : "obj-5",
																													"maxclass" : "message",
																													"numinlets" : 2,
																													"numoutlets" : 1,
																													"outlettype" : [ "" ],
																													"patching_rect" : [ 58.000000135505616, 291.712732369913056, 42.0, 22.0 ],
																													"text" : "get $1"
																												}

																											}
, 																											{
																												"box" : 																												{
																													"id" : "obj-1",
																													"maxclass" : "newobj",
																													"numinlets" : 2,
																													"numoutlets" : 2,
																													"outlettype" : [ "", "" ],
																													"patching_rect" : [ 50.0, 168.712732369913056, 99.0, 22.0 ],
																													"text" : "combine x ::label"
																												}

																											}
, 																											{
																												"box" : 																												{
																													"id" : "obj-16",
																													"maxclass" : "newobj",
																													"numinlets" : 1,
																													"numoutlets" : 1,
																													"outlettype" : [ "" ],
																													"patching_rect" : [ 50.0, 100.0, 57.0, 22.0 ],
																													"text" : "tosymbol"
																												}

																											}
, 																											{
																												"box" : 																												{
																													"comment" : "",
																													"id" : "obj-18",
																													"index" : 1,
																													"maxclass" : "inlet",
																													"numinlets" : 0,
																													"numoutlets" : 1,
																													"outlettype" : [ "int" ],
																													"patching_rect" : [ 50.0, 39.999994369913054, 30.0, 30.0 ]
																												}

																											}
, 																											{
																												"box" : 																												{
																													"comment" : "",
																													"id" : "obj-19",
																													"index" : 2,
																													"maxclass" : "inlet",
																													"numinlets" : 0,
																													"numoutlets" : 1,
																													"outlettype" : [ "" ],
																													"patching_rect" : [ 237.0, 39.999994369913054, 30.0, 30.0 ]
																												}

																											}
, 																											{
																												"box" : 																												{
																													"comment" : "",
																													"id" : "obj-20",
																													"index" : 1,
																													"maxclass" : "outlet",
																													"numinlets" : 1,
																													"numoutlets" : 0,
																													"patching_rect" : [ 68.5, 469.712732369913056, 30.0, 30.0 ]
																												}

																											}
 ],
																										"lines" : [ 																											{
																												"patchline" : 																												{
																													"destination" : [ "obj-6", 0 ],
																													"source" : [ "obj-1", 0 ]
																												}

																											}
, 																											{
																												"patchline" : 																												{
																													"destination" : [ "obj-8", 0 ],
																													"source" : [ "obj-10", 0 ]
																												}

																											}
, 																											{
																												"patchline" : 																												{
																													"destination" : [ "obj-20", 0 ],
																													"source" : [ "obj-11", 0 ]
																												}

																											}
, 																											{
																												"patchline" : 																												{
																													"destination" : [ "obj-1", 0 ],
																													"source" : [ "obj-16", 0 ]
																												}

																											}
, 																											{
																												"patchline" : 																												{
																													"destination" : [ "obj-16", 0 ],
																													"source" : [ "obj-18", 0 ]
																												}

																											}
, 																											{
																												"patchline" : 																												{
																													"destination" : [ "obj-10", 0 ],
																													"source" : [ "obj-19", 0 ]
																												}

																											}
, 																											{
																												"patchline" : 																												{
																													"destination" : [ "obj-8", 0 ],
																													"source" : [ "obj-5", 0 ]
																												}

																											}
, 																											{
																												"patchline" : 																												{
																													"destination" : [ "obj-11", 1 ],
																													"source" : [ "obj-6", 1 ]
																												}

																											}
, 																											{
																												"patchline" : 																												{
																													"destination" : [ "obj-5", 0 ],
																													"source" : [ "obj-6", 0 ]
																												}

																											}
, 																											{
																												"patchline" : 																												{
																													"destination" : [ "obj-11", 0 ],
																													"source" : [ "obj-8", 1 ]
																												}

																											}
 ]
																									}
,
																									"patching_rect" : [ 95.0, 200.28726800000004, 76.0, 22.0 ],
																									"saved_object_attributes" : 																									{
																										"description" : "",
																										"digest" : "",
																										"globalpatchername" : "",
																										"tags" : ""
																									}
,
																									"text" : "p get_label"
																								}

																							}
, 																							{
																								"box" : 																								{
																									"id" : "obj-5",
																									"maxclass" : "newobj",
																									"numinlets" : 2,
																									"numoutlets" : 2,
																									"outlettype" : [ "", "" ],
																									"patching_rect" : [ 50.0, 238.225904642578826, 64.0, 22.0 ],
																									"text" : "zl.join"
																								}

																							}
, 																							{
																								"box" : 																								{
																									"id" : "obj-6",
																									"maxclass" : "newobj",
																									"numinlets" : 1,
																									"numoutlets" : 1,
																									"outlettype" : [ "int" ],
																									"patcher" : 																									{
																										"fileversion" : 1,
																										"appversion" : 																										{
																											"major" : 8,
																											"minor" : 5,
																											"revision" : 4,
																											"architecture" : "x64",
																											"modernui" : 1
																										}
,
																										"classnamespace" : "box",
																										"rect" : [ 0.0, 0.0, 640.0, 480.0 ],
																										"bglocked" : 0,
																										"openinpresentation" : 0,
																										"default_fontsize" : 12.0,
																										"default_fontface" : 0,
																										"default_fontname" : "Arial",
																										"gridonopen" : 1,
																										"gridsize" : [ 15.0, 15.0 ],
																										"gridsnaponopen" : 1,
																										"objectsnaponopen" : 1,
																										"statusbarvisible" : 2,
																										"toolbarvisible" : 1,
																										"lefttoolbarpinned" : 0,
																										"toptoolbarpinned" : 0,
																										"righttoolbarpinned" : 0,
																										"bottomtoolbarpinned" : 0,
																										"toolbars_unpinned_last_save" : 0,
																										"tallnewobj" : 0,
																										"boxanimatetime" : 200,
																										"enablehscroll" : 1,
																										"enablevscroll" : 1,
																										"devicewidth" : 0.0,
																										"description" : "",
																										"digest" : "",
																										"tags" : "",
																										"style" : "",
																										"subpatcher_template" : "",
																										"assistshowspatchername" : 0,
																										"boxes" : [ 																											{
																												"box" : 																												{
																													"id" : "obj-3",
																													"maxclass" : "message",
																													"numinlets" : 2,
																													"numoutlets" : 1,
																													"outlettype" : [ "" ],
																													"patching_rect" : [ 50.0, 100.0, 39.0, 22.0 ],
																													"text" : "$2 $1"
																												}

																											}
, 																											{
																												"box" : 																												{
																													"id" : "obj-2",
																													"maxclass" : "newobj",
																													"numinlets" : 1,
																													"numoutlets" : 2,
																													"outlettype" : [ "int", "int" ],
																													"patching_rect" : [ 50.0, 138.0, 68.0, 22.0 ],
																													"text" : "unpack 0 0"
																												}

																											}
, 																											{
																												"box" : 																												{
																													"id" : "obj-17",
																													"maxclass" : "newobj",
																													"numinlets" : 2,
																													"numoutlets" : 1,
																													"outlettype" : [ "int" ],
																													"patching_rect" : [ 71.0, 446.287267630086944, 76.0, 22.0 ],
																													"text" : "+ 0"
																												}

																											}
, 																											{
																												"box" : 																												{
																													"id" : "obj-18",
																													"maxclass" : "newobj",
																													"numinlets" : 1,
																													"numoutlets" : 2,
																													"outlettype" : [ "int", "int" ],
																													"patching_rect" : [ 99.0, 207.287267630086944, 47.5, 22.0 ],
																													"text" : "t i i"
																												}

																											}
, 																											{
																												"box" : 																												{
																													"id" : "obj-19",
																													"maxclass" : "newobj",
																													"numinlets" : 2,
																													"numoutlets" : 1,
																													"outlettype" : [ "int" ],
																													"patching_rect" : [ 50.0, 271.287267630086944, 68.0, 22.0 ],
																													"text" : "- 0"
																												}

																											}
, 																											{
																												"box" : 																												{
																													"id" : "obj-61",
																													"maxclass" : "newobj",
																													"numinlets" : 2,
																													"numoutlets" : 1,
																													"outlettype" : [ "int" ],
																													"patching_rect" : [ 71.0, 395.287267630086944, 29.5, 22.0 ],
																													"text" : "- 1"
																												}

																											}
, 																											{
																												"box" : 																												{
																													"id" : "obj-56",
																													"maxclass" : "newobj",
																													"numinlets" : 2,
																													"numoutlets" : 3,
																													"outlettype" : [ "bang", "bang", "int" ],
																													"patching_rect" : [ 50.0, 334.287267630086944, 40.0, 22.0 ],
																													"text" : "uzi"
																												}

																											}
, 																											{
																												"box" : 																												{
																													"comment" : "",
																													"id" : "obj-13",
																													"index" : 1,
																													"maxclass" : "inlet",
																													"numinlets" : 0,
																													"numoutlets" : 1,
																													"outlettype" : [ "" ],
																													"patching_rect" : [ 50.0, 40.0, 30.0, 30.0 ]
																												}

																											}
, 																											{
																												"box" : 																												{
																													"comment" : "",
																													"id" : "obj-14",
																													"index" : 1,
																													"maxclass" : "outlet",
																													"numinlets" : 1,
																													"numoutlets" : 0,
																													"patching_rect" : [ 71.0, 528.287262000000055, 30.0, 30.0 ]
																												}

																											}
 ],
																										"lines" : [ 																											{
																												"patchline" : 																												{
																													"destination" : [ "obj-3", 0 ],
																													"source" : [ "obj-13", 0 ]
																												}

																											}
, 																											{
																												"patchline" : 																												{
																													"destination" : [ "obj-14", 0 ],
																													"source" : [ "obj-17", 0 ]
																												}

																											}
, 																											{
																												"patchline" : 																												{
																													"destination" : [ "obj-17", 1 ],
																													"source" : [ "obj-18", 1 ]
																												}

																											}
, 																											{
																												"patchline" : 																												{
																													"destination" : [ "obj-19", 1 ],
																													"source" : [ "obj-18", 0 ]
																												}

																											}
, 																											{
																												"patchline" : 																												{
																													"destination" : [ "obj-56", 0 ],
																													"source" : [ "obj-19", 0 ]
																												}

																											}
, 																											{
																												"patchline" : 																												{
																													"destination" : [ "obj-18", 0 ],
																													"source" : [ "obj-2", 1 ]
																												}

																											}
, 																											{
																												"patchline" : 																												{
																													"destination" : [ "obj-19", 0 ],
																													"source" : [ "obj-2", 0 ]
																												}

																											}
, 																											{
																												"patchline" : 																												{
																													"destination" : [ "obj-2", 0 ],
																													"source" : [ "obj-3", 0 ]
																												}

																											}
, 																											{
																												"patchline" : 																												{
																													"destination" : [ "obj-61", 0 ],
																													"source" : [ "obj-56", 2 ]
																												}

																											}
, 																											{
																												"patchline" : 																												{
																													"destination" : [ "obj-17", 0 ],
																													"source" : [ "obj-61", 0 ]
																												}

																											}
 ]
																									}
,
																									"patching_rect" : [ 50.0, 100.0, 88.0, 22.0 ],
																									"saved_object_attributes" : 																									{
																										"description" : "",
																										"digest" : "",
																										"globalpatchername" : "",
																										"tags" : ""
																									}
,
																									"text" : "p iterate_beats"
																								}

																							}
, 																							{
																								"box" : 																								{
																									"id" : "obj-12",
																									"maxclass" : "newobj",
																									"numinlets" : 1,
																									"numoutlets" : 2,
																									"outlettype" : [ "int", "int" ],
																									"patching_rect" : [ 50.0, 155.0, 63.5, 22.0 ],
																									"text" : "t i i"
																								}

																							}
, 																							{
																								"box" : 																								{
																									"comment" : "(list: int int) start beat, end beat",
																									"id" : "obj-11",
																									"index" : 1,
																									"maxclass" : "inlet",
																									"numinlets" : 0,
																									"numoutlets" : 1,
																									"outlettype" : [ "" ],
																									"patching_rect" : [ 50.0, 40.0, 30.0, 30.0 ]
																								}

																							}
, 																							{
																								"box" : 																								{
																									"comment" : "(sym) beat list dict name",
																									"id" : "obj-14",
																									"index" : 2,
																									"maxclass" : "inlet",
																									"numinlets" : 0,
																									"numoutlets" : 1,
																									"outlettype" : [ "" ],
																									"patching_rect" : [ 152.0, 40.0, 30.0, 30.0 ]
																								}

																							}
, 																							{
																								"box" : 																								{
																									"comment" : "iterates lists (int + anything), beat number + label",
																									"id" : "obj-18",
																									"index" : 1,
																									"maxclass" : "outlet",
																									"numinlets" : 1,
																									"numoutlets" : 0,
																									"patching_rect" : [ 50.0, 320.225891000000047, 30.0, 30.0 ]
																								}

																							}
 ],
																						"lines" : [ 																							{
																								"patchline" : 																								{
																									"destination" : [ "obj-6", 0 ],
																									"source" : [ "obj-11", 0 ]
																								}

																							}
, 																							{
																								"patchline" : 																								{
																									"destination" : [ "obj-21", 0 ],
																									"source" : [ "obj-12", 1 ]
																								}

																							}
, 																							{
																								"patchline" : 																								{
																									"destination" : [ "obj-5", 0 ],
																									"source" : [ "obj-12", 0 ]
																								}

																							}
, 																							{
																								"patchline" : 																								{
																									"destination" : [ "obj-21", 1 ],
																									"source" : [ "obj-14", 0 ]
																								}

																							}
, 																							{
																								"patchline" : 																								{
																									"destination" : [ "obj-1", 0 ],
																									"order" : 0,
																									"source" : [ "obj-21", 0 ]
																								}

																							}
, 																							{
																								"patchline" : 																								{
																									"destination" : [ "obj-5", 1 ],
																									"order" : 1,
																									"source" : [ "obj-21", 0 ]
																								}

																							}
, 																							{
																								"patchline" : 																								{
																									"destination" : [ "obj-18", 0 ],
																									"source" : [ "obj-5", 0 ]
																								}

																							}
, 																							{
																								"patchline" : 																								{
																									"destination" : [ "obj-12", 0 ],
																									"source" : [ "obj-6", 0 ]
																								}

																							}
 ]
																					}
,
																					"patching_rect" : [ 50.0, 100.0, 112.0, 22.0 ],
																					"saved_object_attributes" : 																					{
																						"description" : "",
																						"digest" : "",
																						"globalpatchername" : "",
																						"tags" : ""
																					}
,
																					"text" : "p iterate_beat_data"
																				}

																			}
, 																			{
																				"box" : 																				{
																					"comment" : "",
																					"id" : "obj-23",
																					"index" : 1,
																					"maxclass" : "inlet",
																					"numinlets" : 0,
																					"numoutlets" : 1,
																					"outlettype" : [ "" ],
																					"patching_rect" : [ 50.0, 29.999989690539394, 30.0, 30.0 ]
																				}

																			}
, 																			{
																				"box" : 																				{
																					"comment" : "",
																					"id" : "obj-24",
																					"index" : 3,
																					"maxclass" : "inlet",
																					"numinlets" : 0,
																					"numoutlets" : 1,
																					"outlettype" : [ "" ],
																					"patching_rect" : [ 257.0, 29.999989690539394, 30.0, 30.0 ]
																				}

																			}
, 																			{
																				"box" : 																				{
																					"comment" : "",
																					"id" : "obj-27",
																					"index" : 2,
																					"maxclass" : "inlet",
																					"numinlets" : 0,
																					"numoutlets" : 1,
																					"outlettype" : [ "" ],
																					"patching_rect" : [ 178.0, 29.999989690539394, 30.0, 30.0 ]
																				}

																			}
, 																			{
																				"box" : 																				{
																					"id" : "obj-1",
																					"maxclass" : "newobj",
																					"numinlets" : 1,
																					"numoutlets" : 1,
																					"outlettype" : [ "" ],
																					"patching_rect" : [ 50.0, 162.000009999999918, 109.0, 22.0 ],
																					"text" : "prepend add_state"
																				}

																			}
, 																			{
																				"box" : 																				{
																					"id" : "obj-2",
																					"maxclass" : "newobj",
																					"numinlets" : 2,
																					"numoutlets" : 3,
																					"outlettype" : [ "bang", "", "dictionary" ],
																					"patching_rect" : [ 50.0, 222.44646101225652, 147.0, 22.0 ],
																					"text" : "factor_oracle"
																				}

																			}
 ],
																		"lines" : [ 																			{
																				"patchline" : 																				{
																					"destination" : [ "obj-2", 0 ],
																					"source" : [ "obj-1", 0 ]
																				}

																			}
, 																			{
																				"patchline" : 																				{
																					"destination" : [ "obj-1", 0 ],
																					"order" : 1,
																					"source" : [ "obj-19", 0 ]
																				}

																			}
, 																			{
																				"patchline" : 																				{
																					"destination" : [ "obj-3", 0 ],
																					"order" : 0,
																					"source" : [ "obj-19", 0 ]
																				}

																			}
, 																			{
																				"patchline" : 																				{
																					"destination" : [ "obj-19", 0 ],
																					"source" : [ "obj-23", 0 ]
																				}

																			}
, 																			{
																				"patchline" : 																				{
																					"destination" : [ "obj-19", 1 ],
																					"source" : [ "obj-24", 0 ]
																				}

																			}
, 																			{
																				"patchline" : 																				{
																					"destination" : [ "obj-2", 1 ],
																					"source" : [ "obj-27", 0 ]
																				}

																			}
, 																			{
																				"patchline" : 																				{
																					"destination" : [ "obj-4", 0 ],
																					"source" : [ "obj-3", 1 ]
																				}

																			}
 ]
																	}
,
																	"patching_rect" : [ 252.5, 519.873135357421233, 109.0, 22.0 ],
																	"saved_object_attributes" : 																	{
																		"description" : "",
																		"digest" : "",
																		"globalpatchername" : "",
																		"tags" : ""
																	}
,
																	"text" : "p add_beats"
																}

															}
, 															{
																"box" : 																{
																	"comment" : "",
																	"id" : "obj-4",
																	"index" : 2,
																	"maxclass" : "inlet",
																	"numinlets" : 0,
																	"numoutlets" : 1,
																	"outlettype" : [ "" ],
																	"patching_rect" : [ 732.0, 37.5, 30.0, 30.0 ],
																	"varname" : "u759022771"
																}

															}
, 															{
																"box" : 																{
																	"id" : "obj-26",
																	"maxclass" : "newobj",
																	"numinlets" : 1,
																	"numoutlets" : 3,
																	"outlettype" : [ "bang", "", "bang" ],
																	"patching_rect" : [ 23.5, 301.0, 477.0, 22.0 ],
																	"text" : "t b l b"
																}

															}
, 															{
																"box" : 																{
																	"id" : "obj-25",
																	"maxclass" : "newobj",
																	"numinlets" : 1,
																	"numoutlets" : 2,
																	"outlettype" : [ "", "" ],
																	"patcher" : 																	{
																		"fileversion" : 1,
																		"appversion" : 																		{
																			"major" : 8,
																			"minor" : 5,
																			"revision" : 4,
																			"architecture" : "x64",
																			"modernui" : 1
																		}
,
																		"classnamespace" : "box",
																		"rect" : [ 84.0, 144.0, 640.0, 480.0 ],
																		"bglocked" : 0,
																		"openinpresentation" : 0,
																		"default_fontsize" : 12.0,
																		"default_fontface" : 0,
																		"default_fontname" : "Arial",
																		"gridonopen" : 1,
																		"gridsize" : [ 15.0, 15.0 ],
																		"gridsnaponopen" : 1,
																		"objectsnaponopen" : 1,
																		"statusbarvisible" : 2,
																		"toolbarvisible" : 1,
																		"lefttoolbarpinned" : 0,
																		"toptoolbarpinned" : 0,
																		"righttoolbarpinned" : 0,
																		"bottomtoolbarpinned" : 0,
																		"toolbars_unpinned_last_save" : 0,
																		"tallnewobj" : 0,
																		"boxanimatetime" : 200,
																		"enablehscroll" : 1,
																		"enablevscroll" : 1,
																		"devicewidth" : 0.0,
																		"description" : "",
																		"digest" : "",
																		"tags" : "",
																		"style" : "",
																		"subpatcher_template" : "",
																		"assistshowspatchername" : 0,
																		"boxes" : [ 																			{
																				"box" : 																				{
																					"id" : "obj-21",
																					"maxclass" : "newobj",
																					"numinlets" : 1,
																					"numoutlets" : 2,
																					"outlettype" : [ "", "" ],
																					"patching_rect" : [ 50.0, 100.0, 50.5, 22.0 ],
																					"text" : "t l l"
																				}

																			}
, 																			{
																				"box" : 																				{
																					"id" : "obj-20",
																					"maxclass" : "gswitch2",
																					"numinlets" : 2,
																					"numoutlets" : 2,
																					"outlettype" : [ "", "" ],
																					"parameter_enable" : 0,
																					"patching_rect" : [ 81.5, 296.0, 39.0, 32.0 ]
																				}

																			}
, 																			{
																				"box" : 																				{
																					"id" : "obj-19",
																					"maxclass" : "newobj",
																					"numinlets" : 1,
																					"numoutlets" : 2,
																					"outlettype" : [ "int", "int" ],
																					"patching_rect" : [ 81.5, 162.0, 67.0, 22.0 ],
																					"text" : "unpack 0 0"
																				}

																			}
, 																			{
																				"box" : 																				{
																					"id" : "obj-18",
																					"maxclass" : "newobj",
																					"numinlets" : 2,
																					"numoutlets" : 1,
																					"outlettype" : [ "int" ],
																					"patching_rect" : [ 81.5, 232.0, 67.0, 22.0 ],
																					"text" : "== 0"
																				}

																			}
, 																			{
																				"box" : 																				{
																					"comment" : "",
																					"id" : "obj-22",
																					"index" : 1,
																					"maxclass" : "inlet",
																					"numinlets" : 0,
																					"numoutlets" : 1,
																					"outlettype" : [ "" ],
																					"patching_rect" : [ 50.0, 40.0, 30.0, 30.0 ]
																				}

																			}
, 																			{
																				"box" : 																				{
																					"comment" : "",
																					"id" : "obj-23",
																					"index" : 1,
																					"maxclass" : "outlet",
																					"numinlets" : 1,
																					"numoutlets" : 0,
																					"patching_rect" : [ 81.5, 388.0, 30.0, 30.0 ]
																				}

																			}
, 																			{
																				"box" : 																				{
																					"comment" : "",
																					"id" : "obj-24",
																					"index" : 2,
																					"maxclass" : "outlet",
																					"numinlets" : 1,
																					"numoutlets" : 0,
																					"patching_rect" : [ 225.5, 388.0, 30.0, 30.0 ]
																				}

																			}
 ],
																		"lines" : [ 																			{
																				"patchline" : 																				{
																					"destination" : [ "obj-20", 0 ],
																					"source" : [ "obj-18", 0 ]
																				}

																			}
, 																			{
																				"patchline" : 																				{
																					"destination" : [ "obj-18", 1 ],
																					"source" : [ "obj-19", 1 ]
																				}

																			}
, 																			{
																				"patchline" : 																				{
																					"destination" : [ "obj-18", 0 ],
																					"source" : [ "obj-19", 0 ]
																				}

																			}
, 																			{
																				"patchline" : 																				{
																					"destination" : [ "obj-23", 0 ],
																					"source" : [ "obj-20", 0 ]
																				}

																			}
, 																			{
																				"patchline" : 																				{
																					"destination" : [ "obj-24", 0 ],
																					"source" : [ "obj-20", 1 ]
																				}

																			}
, 																			{
																				"patchline" : 																				{
																					"destination" : [ "obj-19", 0 ],
																					"source" : [ "obj-21", 1 ]
																				}

																			}
, 																			{
																				"patchline" : 																				{
																					"destination" : [ "obj-20", 1 ],
																					"source" : [ "obj-21", 0 ]
																				}

																			}
, 																			{
																				"patchline" : 																				{
																					"destination" : [ "obj-21", 0 ],
																					"source" : [ "obj-22", 0 ]
																				}

																			}
 ]
																	}
,
																	"patching_rect" : [ 23.5, 234.0, 162.0, 22.0 ],
																	"saved_object_attributes" : 																	{
																		"description" : "",
																		"digest" : "",
																		"globalpatchername" : "",
																		"tags" : ""
																	}
,
																	"text" : "p pass_if_valid_beats"
																}

															}
, 															{
																"box" : 																{
																	"comment" : "",
																	"id" : "obj-17",
																	"index" : 1,
																	"maxclass" : "outlet",
																	"numinlets" : 1,
																	"numoutlets" : 0,
																	"patching_rect" : [ 23.5, 783.0, 30.0, 30.0 ],
																	"varname" : "u656022760"
																}

															}
, 															{
																"box" : 																{
																	"id" : "obj-16",
																	"maxclass" : "newobj",
																	"numinlets" : 1,
																	"numoutlets" : 1,
																	"outlettype" : [ "NONE" ],
																	"patching_rect" : [ 650.5, 301.0, 50.0, 22.0 ],
																	"text" : "t NONE"
																}

															}
, 															{
																"box" : 																{
																	"id" : "obj-15",
																	"linecount" : 2,
																	"maxclass" : "newobj",
																	"numinlets" : 1,
																	"numoutlets" : 1,
																	"outlettype" : [ "" ],
																	"patching_rect" : [ 23.5, 429.873135666881808, 152.0, 35.0 ],
																	"text" : "pv #0_FACTOR_ORACLE"
																}

															}
, 															{
																"box" : 																{
																	"id" : "obj-9",
																	"maxclass" : "newobj",
																	"numinlets" : 2,
																	"numoutlets" : 2,
																	"outlettype" : [ "", "bang" ],
																	"patcher" : 																	{
																		"fileversion" : 1,
																		"appversion" : 																		{
																			"major" : 8,
																			"minor" : 5,
																			"revision" : 4,
																			"architecture" : "x64",
																			"modernui" : 1
																		}
,
																		"classnamespace" : "box",
																		"rect" : [ 84.0, 144.0, 640.0, 480.0 ],
																		"bglocked" : 0,
																		"openinpresentation" : 0,
																		"default_fontsize" : 12.0,
																		"default_fontface" : 0,
																		"default_fontname" : "Arial",
																		"gridonopen" : 1,
																		"gridsize" : [ 15.0, 15.0 ],
																		"gridsnaponopen" : 1,
																		"objectsnaponopen" : 1,
																		"statusbarvisible" : 2,
																		"toolbarvisible" : 1,
																		"lefttoolbarpinned" : 0,
																		"toptoolbarpinned" : 0,
																		"righttoolbarpinned" : 0,
																		"bottomtoolbarpinned" : 0,
																		"toolbars_unpinned_last_save" : 0,
																		"tallnewobj" : 0,
																		"boxanimatetime" : 200,
																		"enablehscroll" : 1,
																		"enablevscroll" : 1,
																		"devicewidth" : 0.0,
																		"description" : "",
																		"digest" : "",
																		"tags" : "",
																		"style" : "",
																		"subpatcher_template" : "",
																		"assistshowspatchername" : 0,
																		"boxes" : [ 																			{
																				"box" : 																				{
																					"comment" : "",
																					"id" : "obj-2",
																					"index" : 2,
																					"maxclass" : "outlet",
																					"numinlets" : 1,
																					"numoutlets" : 0,
																					"patching_rect" : [ 168.0, 327.0, 30.0, 30.0 ]
																				}

																			}
, 																			{
																				"box" : 																				{
																					"id" : "obj-1",
																					"maxclass" : "newobj",
																					"numinlets" : 1,
																					"numoutlets" : 1,
																					"outlettype" : [ "bang" ],
																					"patching_rect" : [ 168.0, 290.0, 22.0, 22.0 ],
																					"text" : "t b"
																				}

																			}
, 																			{
																				"box" : 																				{
																					"id" : "obj-33",
																					"maxclass" : "gswitch2",
																					"numinlets" : 2,
																					"numoutlets" : 2,
																					"outlettype" : [ "", "" ],
																					"parameter_enable" : 0,
																					"patching_rect" : [ 155.0, 228.0, 39.0, 32.0 ]
																				}

																			}
, 																			{
																				"box" : 																				{
																					"id" : "obj-38",
																					"maxclass" : "message",
																					"numinlets" : 2,
																					"numoutlets" : 1,
																					"outlettype" : [ "" ],
																					"patching_rect" : [ 148.5, 152.0, 29.5, 22.0 ],
																					"text" : "0"
																				}

																			}
, 																			{
																				"box" : 																				{
																					"id" : "obj-36",
																					"maxclass" : "message",
																					"numinlets" : 2,
																					"numoutlets" : 1,
																					"outlettype" : [ "" ],
																					"patching_rect" : [ 203.5, 152.0, 29.5, 22.0 ],
																					"text" : "1"
																				}

																			}
, 																			{
																				"box" : 																				{
																					"id" : "obj-32",
																					"maxclass" : "newobj",
																					"numinlets" : 2,
																					"numoutlets" : 2,
																					"outlettype" : [ "", "" ],
																					"patching_rect" : [ 148.5, 100.0, 74.0, 22.0 ],
																					"text" : "route NONE"
																				}

																			}
, 																			{
																				"box" : 																				{
																					"comment" : "",
																					"id" : "obj-6",
																					"index" : 1,
																					"maxclass" : "inlet",
																					"numinlets" : 0,
																					"numoutlets" : 1,
																					"outlettype" : [ "" ],
																					"patching_rect" : [ 70.0, 40.0, 30.0, 30.0 ]
																				}

																			}
, 																			{
																				"box" : 																				{
																					"comment" : "",
																					"id" : "obj-7",
																					"index" : 2,
																					"maxclass" : "inlet",
																					"numinlets" : 0,
																					"numoutlets" : 1,
																					"outlettype" : [ "" ],
																					"patching_rect" : [ 148.5, 40.0, 30.0, 30.0 ]
																				}

																			}
, 																			{
																				"box" : 																				{
																					"comment" : "",
																					"id" : "obj-8",
																					"index" : 1,
																					"maxclass" : "outlet",
																					"numinlets" : 1,
																					"numoutlets" : 0,
																					"patching_rect" : [ 70.0, 320.0, 30.0, 30.0 ]
																				}

																			}
 ],
																		"lines" : [ 																			{
																				"patchline" : 																				{
																					"destination" : [ "obj-2", 0 ],
																					"source" : [ "obj-1", 0 ]
																				}

																			}
, 																			{
																				"patchline" : 																				{
																					"destination" : [ "obj-36", 0 ],
																					"source" : [ "obj-32", 1 ]
																				}

																			}
, 																			{
																				"patchline" : 																				{
																					"destination" : [ "obj-38", 0 ],
																					"source" : [ "obj-32", 0 ]
																				}

																			}
, 																			{
																				"patchline" : 																				{
																					"destination" : [ "obj-1", 0 ],
																					"source" : [ "obj-33", 0 ]
																				}

																			}
, 																			{
																				"patchline" : 																				{
																					"destination" : [ "obj-8", 0 ],
																					"source" : [ "obj-33", 1 ]
																				}

																			}
, 																			{
																				"patchline" : 																				{
																					"destination" : [ "obj-33", 0 ],
																					"source" : [ "obj-36", 0 ]
																				}

																			}
, 																			{
																				"patchline" : 																				{
																					"destination" : [ "obj-33", 0 ],
																					"source" : [ "obj-38", 0 ]
																				}

																			}
, 																			{
																				"patchline" : 																				{
																					"destination" : [ "obj-33", 1 ],
																					"source" : [ "obj-6", 0 ]
																				}

																			}
, 																			{
																				"patchline" : 																				{
																					"destination" : [ "obj-32", 0 ],
																					"source" : [ "obj-7", 0 ]
																				}

																			}
 ]
																	}
,
																	"patching_rect" : [ 23.5, 159.0, 162.0, 22.0 ],
																	"saved_object_attributes" : 																	{
																		"description" : "",
																		"digest" : "",
																		"globalpatchername" : "",
																		"tags" : ""
																	}
,
																	"text" : "p pass_if_song_dict_loaded"
																}

															}
, 															{
																"box" : 																{
																	"id" : "obj-74",
																	"maxclass" : "newobj",
																	"numinlets" : 1,
																	"numoutlets" : 0,
																	"patcher" : 																	{
																		"fileversion" : 1,
																		"appversion" : 																		{
																			"major" : 8,
																			"minor" : 5,
																			"revision" : 4,
																			"architecture" : "x64",
																			"modernui" : 1
																		}
,
																		"classnamespace" : "box",
																		"rect" : [ 84.0, 144.0, 640.0, 480.0 ],
																		"bglocked" : 0,
																		"openinpresentation" : 0,
																		"default_fontsize" : 12.0,
																		"default_fontface" : 0,
																		"default_fontname" : "Arial",
																		"gridonopen" : 1,
																		"gridsize" : [ 15.0, 15.0 ],
																		"gridsnaponopen" : 1,
																		"objectsnaponopen" : 1,
																		"statusbarvisible" : 2,
																		"toolbarvisible" : 1,
																		"lefttoolbarpinned" : 0,
																		"toptoolbarpinned" : 0,
																		"righttoolbarpinned" : 0,
																		"bottomtoolbarpinned" : 0,
																		"toolbars_unpinned_last_save" : 0,
																		"tallnewobj" : 0,
																		"boxanimatetime" : 200,
																		"enablehscroll" : 1,
																		"enablevscroll" : 1,
																		"devicewidth" : 0.0,
																		"description" : "",
																		"digest" : "",
																		"tags" : "",
																		"style" : "",
																		"subpatcher_template" : "",
																		"assistshowspatchername" : 0,
																		"boxes" : [ 																			{
																				"box" : 																				{
																					"id" : "obj-72",
																					"maxclass" : "newobj",
																					"numinlets" : 1,
																					"numoutlets" : 2,
																					"outlettype" : [ "bang", "" ],
																					"patching_rect" : [ 50.0, 101.0, 185.0, 22.0 ],
																					"text" : "t b s"
																				}

																			}
, 																			{
																				"box" : 																				{
																					"id" : "obj-19",
																					"linecount" : 2,
																					"maxclass" : "message",
																					"numinlets" : 2,
																					"numoutlets" : 1,
																					"outlettype" : [ "" ],
																					"patching_rect" : [ 50.0, 185.517573892113489, 151.0, 35.0 ],
																					"text" : "clear, comparison fo.compare.equal_chords"
																				}

																			}
, 																			{
																				"box" : 																				{
																					"id" : "obj-70",
																					"maxclass" : "newobj",
																					"numinlets" : 2,
																					"numoutlets" : 3,
																					"outlettype" : [ "bang", "", "dictionary" ],
																					"patching_rect" : [ 50.0, 252.802008679138169, 185.100019845176575, 22.0 ],
																					"text" : "factor_oracle"
																				}

																			}
, 																			{
																				"box" : 																				{
																					"comment" : "",
																					"id" : "obj-73",
																					"index" : 1,
																					"maxclass" : "inlet",
																					"numinlets" : 0,
																					"numoutlets" : 1,
																					"outlettype" : [ "" ],
																					"patching_rect" : [ 50.0, 32.0, 30.0, 30.0 ]
																				}

																			}
 ],
																		"lines" : [ 																			{
																				"patchline" : 																				{
																					"destination" : [ "obj-70", 0 ],
																					"source" : [ "obj-19", 0 ]
																				}

																			}
, 																			{
																				"patchline" : 																				{
																					"destination" : [ "obj-19", 0 ],
																					"source" : [ "obj-72", 0 ]
																				}

																			}
, 																			{
																				"patchline" : 																				{
																					"destination" : [ "obj-70", 1 ],
																					"source" : [ "obj-72", 1 ]
																				}

																			}
, 																			{
																				"patchline" : 																				{
																					"destination" : [ "obj-72", 0 ],
																					"source" : [ "obj-73", 0 ]
																				}

																			}
 ]
																	}
,
																	"patching_rect" : [ 481.5, 519.873135357421233, 121.0, 22.0 ],
																	"saved_object_attributes" : 																	{
																		"description" : "",
																		"digest" : "",
																		"globalpatchername" : "",
																		"tags" : ""
																	}
,
																	"text" : "p reset_factor_oracle"
																}

															}
, 															{
																"box" : 																{
																	"comment" : "(list: int int) start beat, end beat",
																	"id" : "obj-1",
																	"index" : 1,
																	"maxclass" : "inlet",
																	"numinlets" : 0,
																	"numoutlets" : 1,
																	"outlettype" : [ "" ],
																	"patching_rect" : [ 23.5, 37.5, 30.0, 30.0 ],
																	"varname" : "u600022761"
																}

															}
, 															{
																"box" : 																{
																	"id" : "obj-3",
																	"maxclass" : "newobj",
																	"numinlets" : 1,
																	"numoutlets" : 2,
																	"outlettype" : [ "", "bang" ],
																	"patching_rect" : [ 252.5, 369.0, 64.0, 22.0 ],
																	"text" : "t l b"
																}

															}
, 															{
																"box" : 																{
																	"id" : "obj-47",
																	"linecount" : 2,
																	"maxclass" : "newobj",
																	"numinlets" : 1,
																	"numoutlets" : 1,
																	"outlettype" : [ "" ],
																	"patching_rect" : [ 297.5, 429.873135666881808, 153.0, 35.0 ],
																	"text" : "pv #0_FACTOR_ORACLE"
																}

															}
, 															{
																"box" : 																{
																	"id" : "obj-13",
																	"linecount" : 2,
																	"maxclass" : "newobj",
																	"numinlets" : 1,
																	"numoutlets" : 1,
																	"outlettype" : [ "" ],
																	"patching_rect" : [ 481.5, 429.873135666881808, 152.0, 35.0 ],
																	"text" : "pv #0_FACTOR_ORACLE"
																}

															}
 ],
														"lines" : [ 															{
																"patchline" : 																{
																	"destination" : [ "obj-9", 0 ],
																	"source" : [ "obj-1", 0 ]
																}

															}
, 															{
																"patchline" : 																{
																	"destination" : [ "obj-74", 0 ],
																	"source" : [ "obj-13", 0 ]
																}

															}
, 															{
																"patchline" : 																{
																	"destination" : [ "obj-17", 0 ],
																	"source" : [ "obj-15", 0 ]
																}

															}
, 															{
																"patchline" : 																{
																	"destination" : [ "obj-17", 0 ],
																	"midpoints" : [ 660.0, 705.436567833440904, 33.0, 705.436567833440904 ],
																	"source" : [ "obj-16", 0 ]
																}

															}
, 															{
																"patchline" : 																{
																	"destination" : [ "obj-16", 0 ],
																	"midpoints" : [ 176.0, 280.436567833440904, 660.0, 280.436567833440904 ],
																	"source" : [ "obj-25", 1 ]
																}

															}
, 															{
																"patchline" : 																{
																	"destination" : [ "obj-26", 0 ],
																	"source" : [ "obj-25", 0 ]
																}

															}
, 															{
																"patchline" : 																{
																	"destination" : [ "obj-13", 0 ],
																	"source" : [ "obj-26", 2 ]
																}

															}
, 															{
																"patchline" : 																{
																	"destination" : [ "obj-15", 0 ],
																	"source" : [ "obj-26", 0 ]
																}

															}
, 															{
																"patchline" : 																{
																	"destination" : [ "obj-3", 0 ],
																	"source" : [ "obj-26", 1 ]
																}

															}
, 															{
																"patchline" : 																{
																	"destination" : [ "obj-28", 0 ],
																	"source" : [ "obj-3", 0 ]
																}

															}
, 															{
																"patchline" : 																{
																	"destination" : [ "obj-47", 0 ],
																	"source" : [ "obj-3", 1 ]
																}

															}
, 															{
																"patchline" : 																{
																	"destination" : [ "obj-28", 2 ],
																	"midpoints" : [ 741.5, 490.186567678710617, 352.0, 490.186567678710617 ],
																	"order" : 0,
																	"source" : [ "obj-4", 0 ]
																}

															}
, 															{
																"patchline" : 																{
																	"destination" : [ "obj-9", 1 ],
																	"midpoints" : [ 741.5, 117.25, 176.0, 117.25 ],
																	"order" : 1,
																	"source" : [ "obj-4", 0 ]
																}

															}
, 															{
																"patchline" : 																{
																	"destination" : [ "obj-28", 1 ],
																	"source" : [ "obj-47", 0 ]
																}

															}
, 															{
																"patchline" : 																{
																	"destination" : [ "obj-16", 0 ],
																	"midpoints" : [ 176.0, 209.436567833440904, 660.0, 209.436567833440904 ],
																	"source" : [ "obj-9", 1 ]
																}

															}
, 															{
																"patchline" : 																{
																	"destination" : [ "obj-25", 0 ],
																	"source" : [ "obj-9", 0 ]
																}

															}
 ]
													}
,
													"patching_rect" : [ 57.0, 167.035022822183521, 124.0, 22.0 ],
													"saved_object_attributes" : 													{
														"description" : "",
														"digest" : "",
														"globalpatchername" : "",
														"tags" : ""
													}
,
													"text" : "p make_factor_oracle",
													"varname" : "patcher[1]"
												}

											}
, 											{
												"box" : 												{
													"comment" : "",
													"id" : "obj-23",
													"index" : 1,
													"maxclass" : "outlet",
													"numinlets" : 1,
													"numoutlets" : 0,
													"patching_rect" : [ 57.0, 320.035013165613123, 30.0, 30.0 ]
												}

											}
, 											{
												"box" : 												{
													"id" : "obj-11",
													"maxclass" : "message",
													"numinlets" : 2,
													"numoutlets" : 1,
													"outlettype" : [ "" ],
													"patching_rect" : [ 244.0, 236.922852000000034, 57.0, 22.0 ],
													"text" : "states $1"
												}

											}
 ],
										"lines" : [ 											{
												"patchline" : 												{
													"destination" : [ "obj-32", 0 ],
													"source" : [ "obj-1", 0 ]
												}

											}
, 											{
												"patchline" : 												{
													"destination" : [ "obj-23", 0 ],
													"source" : [ "obj-11", 0 ]
												}

											}
, 											{
												"patchline" : 												{
													"destination" : [ "obj-1", 0 ],
													"source" : [ "obj-2", 0 ]
												}

											}
, 											{
												"patchline" : 												{
													"destination" : [ "obj-23", 0 ],
													"source" : [ "obj-28", 0 ]
												}

											}
, 											{
												"patchline" : 												{
													"destination" : [ "obj-11", 0 ],
													"order" : 0,
													"source" : [ "obj-3", 0 ]
												}

											}
, 											{
												"patchline" : 												{
													"destination" : [ "obj-32", 1 ],
													"order" : 1,
													"source" : [ "obj-3", 0 ]
												}

											}
, 											{
												"patchline" : 												{
													"destination" : [ "obj-28", 0 ],
													"source" : [ "obj-32", 0 ]
												}

											}
 ]
									}
,
									"patching_rect" : [ 275.0, 213.793967694948662, 186.0, 22.0 ],
									"saved_object_attributes" : 									{
										"description" : "",
										"digest" : "",
										"globalpatchername" : "",
										"tags" : ""
									}
,
									"text" : "p factor_oracle",
									"varname" : "factor_oracle"
								}

							}
, 							{
								"box" : 								{
									"id" : "obj-6",
									"maxclass" : "newobj",
									"numinlets" : 1,
									"numoutlets" : 1,
									"outlettype" : [ "" ],
									"patcher" : 									{
										"fileversion" : 1,
										"appversion" : 										{
											"major" : 8,
											"minor" : 5,
											"revision" : 4,
											"architecture" : "x64",
											"modernui" : 1
										}
,
										"classnamespace" : "box",
										"rect" : [ 566.0, 167.0, 814.0, 673.0 ],
										"bglocked" : 0,
										"openinpresentation" : 0,
										"default_fontsize" : 12.0,
										"default_fontface" : 0,
										"default_fontname" : "Arial",
										"gridonopen" : 1,
										"gridsize" : [ 15.0, 15.0 ],
										"gridsnaponopen" : 1,
										"objectsnaponopen" : 1,
										"statusbarvisible" : 2,
										"toolbarvisible" : 1,
										"lefttoolbarpinned" : 0,
										"toptoolbarpinned" : 0,
										"righttoolbarpinned" : 0,
										"bottomtoolbarpinned" : 0,
										"toolbars_unpinned_last_save" : 0,
										"tallnewobj" : 0,
										"boxanimatetime" : 200,
										"enablehscroll" : 1,
										"enablevscroll" : 1,
										"devicewidth" : 0.0,
										"description" : "",
										"digest" : "",
										"tags" : "",
										"style" : "",
										"subpatcher_template" : "",
										"assistshowspatchername" : 0,
										"boxes" : [ 											{
												"box" : 												{
													"id" : "obj-9",
													"maxclass" : "message",
													"numinlets" : 2,
													"numoutlets" : 1,
													"outlettype" : [ "" ],
													"patching_rect" : [ 56.0, 213.0, 111.0, 22.0 ],
													"text" : "audio_in::tempo $1"
												}

											}
, 											{
												"box" : 												{
													"id" : "obj-7",
													"maxclass" : "newobj",
													"numinlets" : 1,
													"numoutlets" : 1,
													"outlettype" : [ "" ],
													"patching_rect" : [ 193.0, 213.0, 211.0, 22.0 ],
													"text" : "prepend audio_in::loop_section_beats"
												}

											}
, 											{
												"box" : 												{
													"id" : "obj-6",
													"maxclass" : "newobj",
													"numinlets" : 1,
													"numoutlets" : 1,
													"outlettype" : [ "" ],
													"patching_rect" : [ 193.0, 171.0, 235.0, 22.0 ],
													"text" : "prepend factor_oracle::loop_section_beats"
												}

											}
, 											{
												"box" : 												{
													"id" : "obj-10",
													"maxclass" : "message",
													"numinlets" : 2,
													"numoutlets" : 1,
													"outlettype" : [ "" ],
													"patching_rect" : [ 27.0, 171.0, 133.0, 22.0 ],
													"text" : "tempo::initial_tempo $1"
												}

											}
, 											{
												"box" : 												{
													"id" : "obj-2",
													"maxclass" : "newobj",
													"numinlets" : 3,
													"numoutlets" : 3,
													"outlettype" : [ "", "", "" ],
													"patching_rect" : [ 27.0, 106.0, 205.0, 22.0 ],
													"text" : "routepass tempo loop_section_beats"
												}

											}
, 											{
												"box" : 												{
													"comment" : "",
													"id" : "obj-3",
													"index" : 1,
													"maxclass" : "outlet",
													"numinlets" : 1,
													"numoutlets" : 0,
													"patching_rect" : [ 27.0, 281.0, 30.0, 30.0 ]
												}

											}
, 											{
												"box" : 												{
													"comment" : "",
													"id" : "obj-1",
													"index" : 1,
													"maxclass" : "inlet",
													"numinlets" : 0,
													"numoutlets" : 1,
													"outlettype" : [ "" ],
													"patching_rect" : [ 27.0, 19.0, 30.0, 30.0 ]
												}

											}
 ],
										"lines" : [ 											{
												"patchline" : 												{
													"destination" : [ "obj-2", 0 ],
													"source" : [ "obj-1", 0 ]
												}

											}
, 											{
												"patchline" : 												{
													"destination" : [ "obj-3", 0 ],
													"source" : [ "obj-2", 1 ]
												}

											}
, 											{
												"patchline" : 												{
													"destination" : [ "obj-3", 0 ],
													"source" : [ "obj-2", 0 ]
												}

											}
 ]
									}
,
									"patching_rect" : [ 275.0, 147.048264570275876, 157.0, 22.0 ],
									"saved_object_attributes" : 									{
										"description" : "",
										"digest" : "",
										"globalpatchername" : "",
										"tags" : ""
									}
,
									"text" : "p route_master_parameters"
								}

							}
, 							{
								"box" : 								{
									"id" : "obj-5",
									"maxclass" : "newobj",
									"numinlets" : 4,
									"numoutlets" : 1,
									"outlettype" : [ "" ],
									"patching_rect" : [ 189.0, 268.0, 105.0, 22.0 ],
									"text" : "djazz_midi_player",
									"varname" : "midi_player_2"
								}

							}
, 							{
								"box" : 								{
									"id" : "obj-67",
									"maxclass" : "newobj",
									"numinlets" : 2,
									"numoutlets" : 1,
									"outlettype" : [ "" ],
									"patching_rect" : [ 50.0, 373.0, 180.0, 22.0 ],
									"text" : "djazz_midi_out_bank_16_tracks",
									"varname" : "midi_out_bank"
								}

							}
, 							{
								"box" : 								{
									"id" : "obj-2",
									"maxclass" : "newobj",
									"numinlets" : 4,
									"numoutlets" : 1,
									"outlettype" : [ "" ],
									"patching_rect" : [ 50.0, 268.0, 109.999999999999943, 22.0 ],
									"text" : "djazz_midi_player",
									"varname" : "midi_player_1"
								}

							}
, 							{
								"box" : 								{
									"comment" : "(int) beat",
									"id" : "obj-3",
									"index" : 1,
									"maxclass" : "inlet",
									"numinlets" : 0,
									"numoutlets" : 1,
									"outlettype" : [ "" ],
									"patching_rect" : [ 50.0, 27.0, 30.0, 30.0 ]
								}

							}
, 							{
								"box" : 								{
									"comment" : "",
									"id" : "obj-11",
									"index" : 1,
									"maxclass" : "outlet",
									"numinlets" : 1,
									"numoutlets" : 0,
									"patching_rect" : [ 50.0, 455.0, 30.0, 30.0 ]
								}

							}
 ],
						"lines" : [ 							{
								"patchline" : 								{
									"destination" : [ "obj-2", 1 ],
									"midpoints" : [ 134.5, 149.5, 89.833333333333314, 149.5 ],
									"order" : 1,
									"source" : [ "obj-13", 1 ]
								}

							}
, 							{
								"patchline" : 								{
									"destination" : [ "obj-2", 0 ],
									"order" : 1,
									"source" : [ "obj-13", 0 ]
								}

							}
, 							{
								"patchline" : 								{
									"destination" : [ "obj-5", 1 ],
									"midpoints" : [ 134.5, 150.5, 227.166666666666686, 150.5 ],
									"order" : 0,
									"source" : [ "obj-13", 1 ]
								}

							}
, 							{
								"patchline" : 								{
									"destination" : [ "obj-5", 0 ],
									"midpoints" : [ 59.5, 128.5, 198.5, 128.5 ],
									"order" : 0,
									"source" : [ "obj-13", 0 ]
								}

							}
, 							{
								"patchline" : 								{
									"destination" : [ "obj-6", 0 ],
									"source" : [ "obj-13", 3 ]
								}

							}
, 							{
								"patchline" : 								{
									"destination" : [ "obj-8", 0 ],
									"midpoints" : [ 209.5, 125.421116132612269, 451.5, 125.421116132612269 ],
									"source" : [ "obj-13", 2 ]
								}

							}
, 							{
								"patchline" : 								{
									"destination" : [ "obj-67", 0 ],
									"source" : [ "obj-2", 0 ]
								}

							}
, 							{
								"patchline" : 								{
									"destination" : [ "obj-2", 3 ],
									"midpoints" : [ 284.5, 251.396983847474331, 150.499999999999943, 251.396983847474331 ],
									"order" : 1,
									"source" : [ "obj-20", 0 ]
								}

							}
, 							{
								"patchline" : 								{
									"destination" : [ "obj-5", 3 ],
									"order" : 0,
									"source" : [ "obj-20", 0 ]
								}

							}
, 							{
								"patchline" : 								{
									"destination" : [ "obj-13", 0 ],
									"source" : [ "obj-3", 0 ]
								}

							}
, 							{
								"patchline" : 								{
									"destination" : [ "obj-67", 0 ],
									"midpoints" : [ 198.5, 340.5, 59.5, 340.5 ],
									"source" : [ "obj-5", 0 ]
								}

							}
, 							{
								"patchline" : 								{
									"destination" : [ "obj-2", 2 ],
									"midpoints" : [ 284.5, 199.024132285137938, 120.166666666666629, 199.024132285137938 ],
									"order" : 2,
									"source" : [ "obj-6", 0 ]
								}

							}
, 							{
								"patchline" : 								{
									"destination" : [ "obj-20", 0 ],
									"order" : 0,
									"source" : [ "obj-6", 0 ]
								}

							}
, 							{
								"patchline" : 								{
									"destination" : [ "obj-5", 2 ],
									"midpoints" : [ 284.5, 199.024132285137938, 255.833333333333343, 199.024132285137938 ],
									"order" : 1,
									"source" : [ "obj-6", 0 ]
								}

							}
, 							{
								"patchline" : 								{
									"destination" : [ "obj-11", 0 ],
									"source" : [ "obj-67", 0 ]
								}

							}
, 							{
								"patchline" : 								{
									"destination" : [ "obj-20", 1 ],
									"source" : [ "obj-8", 0 ]
								}

							}
 ]
					}
,
					"patching_rect" : [ 152.0, 189.228515625, 127.0, 22.0 ],
					"saved_object_attributes" : 					{
						"description" : "",
						"digest" : "",
						"globalpatchername" : "",
						"tags" : ""
					}
,
					"text" : "p djazz_antescofo",
					"varname" : "antescofo"
				}

			}
, 			{
				"box" : 				{
					"comment" : "(sig) audio out 2",
					"id" : "obj-20",
					"index" : 2,
					"maxclass" : "outlet",
					"numinlets" : 1,
					"numoutlets" : 0,
					"patching_rect" : [ 95.0, 267.0, 30.0, 30.0 ]
				}

			}
, 			{
				"box" : 				{
					"comment" : "(sig) audio out 1 / (0/1) audio off/on ",
					"id" : "obj-19",
					"index" : 1,
					"maxclass" : "outlet",
					"numinlets" : 1,
					"numoutlets" : 0,
					"patching_rect" : [ 26.0, 267.0, 30.0, 30.0 ]
				}

			}
, 			{
				"box" : 				{
					"comment" : "(sig) audio in 2",
					"id" : "obj-18",
					"index" : 2,
					"maxclass" : "inlet",
					"numinlets" : 0,
					"numoutlets" : 1,
					"outlettype" : [ "signal" ],
					"patching_rect" : [ 60.5, 16.999999624999987, 30.0, 30.0 ]
				}

			}
, 			{
				"box" : 				{
					"comment" : "(sig) audio in 1",
					"id" : "obj-17",
					"index" : 1,
					"maxclass" : "inlet",
					"numinlets" : 0,
					"numoutlets" : 1,
					"outlettype" : [ "signal" ],
					"patching_rect" : [ 26.0, 16.999999624999987, 30.0, 30.0 ]
				}

			}
, 			{
				"box" : 				{
					"id" : "obj-16",
					"maxclass" : "newobj",
					"numinlets" : 3,
					"numoutlets" : 2,
					"outlettype" : [ "signal", "signal" ],
					"patching_rect" : [ 26.0, 189.228515625, 88.0, 22.0 ],
					"text" : "djazz.audio",
					"varname" : "audio"
				}

			}
, 			{
				"box" : 				{
					"comment" : "presets",
					"id" : "obj-10",
					"index" : 5,
					"maxclass" : "inlet",
					"numinlets" : 0,
					"numoutlets" : 1,
					"outlettype" : [ "" ],
					"patching_rect" : [ 530.0, 16.999999624999987, 30.0, 30.0 ]
				}

			}
, 			{
				"box" : 				{
					"comment" : "MIDI events",
					"id" : "obj-8",
					"index" : 3,
					"maxclass" : "outlet",
					"numinlets" : 1,
					"numoutlets" : 0,
					"patching_rect" : [ 152.0, 267.0, 30.0, 30.0 ]
				}

			}
, 			{
				"box" : 				{
					"id" : "obj-1",
					"linecount" : 4,
					"maxclass" : "newobj",
					"numinlets" : 1,
					"numoutlets" : 1,
					"outlettype" : [ "" ],
					"patching_rect" : [ 530.0, 99.228516000000013, 123.0, 62.0 ],
					"saved_object_attributes" : 					{
						"client_rect" : [ 755, 102, 1218, 1011 ],
						"parameter_enable" : 0,
						"parameter_mappable" : 0,
						"storage_rect" : [ 583, 69, 1034, 197 ]
					}
,
					"text" : "pattrstorage model_pattrstorage @greedy 1 @outputmode 1",
					"varname" : "model_pattrstorage"
				}

			}
, 			{
				"box" : 				{
					"id" : "obj-7",
					"maxclass" : "newobj",
					"numinlets" : 1,
					"numoutlets" : 2,
					"outlettype" : [ "", "" ],
					"patching_rect" : [ 457.666652666666778, 99.228516000000013, 53.0, 22.0 ],
					"text" : "pattrhub"
				}

			}
, 			{
				"box" : 				{
					"id" : "obj-6",
					"maxclass" : "newobj",
					"numinlets" : 1,
					"numoutlets" : 1,
					"outlettype" : [ "" ],
					"patching_rect" : [ 307.0, 99.228516000000013, 123.0, 22.0 ],
					"text" : "djazz_master_control",
					"varname" : "master"
				}

			}
, 			{
				"box" : 				{
					"comment" : "bang for next beat",
					"id" : "obj-110",
					"index" : 3,
					"maxclass" : "inlet",
					"numinlets" : 0,
					"numoutlets" : 1,
					"outlettype" : [ "bang" ],
					"patching_rect" : [ 307.0, 16.999999624999987, 30.0, 30.0 ]
				}

			}
, 			{
				"box" : 				{
					"comment" : "ctrl variables",
					"id" : "obj-113",
					"index" : 4,
					"maxclass" : "inlet",
					"numinlets" : 0,
					"numoutlets" : 1,
					"outlettype" : [ "" ],
					"patching_rect" : [ 457.666652666666778, 16.999999624999987, 30.0, 30.0 ]
				}

			}
, 			{
				"box" : 				{
					"comment" : "view variables",
					"id" : "obj-115",
					"index" : 4,
					"maxclass" : "outlet",
					"numinlets" : 1,
					"numoutlets" : 0,
					"patching_rect" : [ 530.0, 267.0, 30.0, 30.0 ]
				}

			}
 ],
		"lines" : [ 			{
				"patchline" : 				{
					"destination" : [ "obj-115", 0 ],
					"source" : [ "obj-1", 0 ]
				}

			}
, 			{
				"patchline" : 				{
					"destination" : [ "obj-1", 0 ],
					"source" : [ "obj-10", 0 ]
				}

			}
, 			{
				"patchline" : 				{
					"destination" : [ "obj-6", 0 ],
					"source" : [ "obj-110", 0 ]
				}

			}
, 			{
				"patchline" : 				{
					"destination" : [ "obj-7", 0 ],
					"source" : [ "obj-113", 0 ]
				}

			}
, 			{
				"patchline" : 				{
					"destination" : [ "obj-8", 0 ],
					"source" : [ "obj-12", 0 ]
				}

			}
, 			{
				"patchline" : 				{
					"destination" : [ "obj-19", 0 ],
					"source" : [ "obj-16", 0 ]
				}

			}
, 			{
				"patchline" : 				{
					"destination" : [ "obj-20", 0 ],
					"source" : [ "obj-16", 1 ]
				}

			}
, 			{
				"patchline" : 				{
					"destination" : [ "obj-16", 1 ],
					"source" : [ "obj-17", 0 ]
				}

			}
, 			{
				"patchline" : 				{
					"destination" : [ "obj-16", 2 ],
					"source" : [ "obj-18", 0 ]
				}

			}
, 			{
				"patchline" : 				{
					"destination" : [ "obj-12", 0 ],
					"midpoints" : [ 316.5, 138.728515812500007, 161.5, 138.728515812500007 ],
					"order" : 1,
					"source" : [ "obj-6", 0 ]
				}

			}
, 			{
				"patchline" : 				{
					"destination" : [ "obj-16", 0 ],
					"midpoints" : [ 316.5, 138.0, 35.5, 138.0 ],
					"order" : 2,
					"source" : [ "obj-6", 0 ]
				}

			}
, 			{
				"patchline" : 				{
					"destination" : [ "obj-21", 0 ],
					"order" : 0,
					"source" : [ "obj-6", 0 ]
				}

			}
 ]
	}

}
